<?xml version="1.0" standalone="no"?>
<!DOCTYPE svg PUBLIC "-//W3C//DTD SVG 20010904//EN"
 "http://www.w3.org/TR/2001/REC-SVG-20010904/DTD/svg10.dtd">
<svg version="1.0" xmlns="http://www.w3.org/2000/svg"
 width="1280.000000pt" height="640.000000pt" viewBox="0 0 1280.000000 640.000000"
 preserveAspectRatio="xMidYMid meet">
<metadata>
Created by potrace 1.15, written by Peter Selinger 2001-2017
</metadata>
<g transform="translate(0.000000,640.000000) scale(0.100000,-0.100000)"
fill="#000000" stroke="none">
<path d="M11100 4420 l-775 -449 -4098 -1 c-4064 0 -4099 0 -4265 -20 -622
-76 -997 -175 -1352 -356 -175 -89 -605 -367 -605 -391 0 -22 432 -303 593
-386 318 -162 659 -261 1143 -331 421 -61 53 -56 4510 -56 l4082 0 766 -443
c421 -243 776 -443 789 -445 19 -3 22 0 17 20 -9 40 -135 858 -135 877 0 11
13 24 32 32 43 18 126 103 167 173 19 32 49 95 66 142 17 46 34 87 37 90 7 6
2 7 403 -71 269 -52 290 -55 302 -39 7 9 10 20 8 25 -3 4 -155 94 -339 200
l-333 192 -6 96 c-15 283 -144 566 -299 653 -21 12 -38 29 -38 39 0 15 120
794 134 872 4 21 2 27 -12 26 -9 0 -366 -202 -792 -449z"/>
</g>
</svg>
